<mxfile host="app.diagrams.net" modified="2020-05-02T08:56:10.171Z" agent="5.0 (Windows NT 10.0; WOW64) AppleWebKit/537.36 (KHTML, like Gecko) Chrome/81.0.4044.129 Safari/537.36" etag="2E5qqUX3EMtl3OXsBWaX" version="12.9.10" type="github" pages="2">
  <diagram id="9JHG0YwPGLlp4J_sVx6B" name="Page-1">
    <mxGraphModel dx="880" dy="577" grid="1" gridSize="10" guides="1" tooltips="1" connect="1" arrows="1" fold="1" page="1" pageScale="1" pageWidth="827" pageHeight="1169" math="0" shadow="0">
      <root>
        <mxCell id="0" />
        <mxCell id="1" parent="0" />
        <mxCell id="_EF181qJnlzV5lathquv-7" style="edgeStyle=orthogonalEdgeStyle;rounded=0;orthogonalLoop=1;jettySize=auto;html=1;entryX=0.75;entryY=0;entryDx=0;entryDy=0;" edge="1" parent="1" source="7LcBtZxE-Kfw0sb23pDX-1" target="7LcBtZxE-Kfw0sb23pDX-15">
          <mxGeometry relative="1" as="geometry" />
        </mxCell>
        <mxCell id="_EF181qJnlzV5lathquv-39" style="edgeStyle=orthogonalEdgeStyle;rounded=0;orthogonalLoop=1;jettySize=auto;html=1;entryX=0.5;entryY=0;entryDx=0;entryDy=0;" edge="1" parent="1" source="7LcBtZxE-Kfw0sb23pDX-1" target="7LcBtZxE-Kfw0sb23pDX-13">
          <mxGeometry relative="1" as="geometry" />
        </mxCell>
        <mxCell id="7LcBtZxE-Kfw0sb23pDX-1" value="搜索" style="rounded=0;whiteSpace=wrap;html=1;" parent="1" vertex="1">
          <mxGeometry x="180" y="350" width="80" height="40" as="geometry" />
        </mxCell>
        <mxCell id="_EF181qJnlzV5lathquv-29" style="edgeStyle=orthogonalEdgeStyle;rounded=0;orthogonalLoop=1;jettySize=auto;html=1;entryX=0.5;entryY=0;entryDx=0;entryDy=0;" edge="1" parent="1" source="7LcBtZxE-Kfw0sb23pDX-2" target="7LcBtZxE-Kfw0sb23pDX-5">
          <mxGeometry relative="1" as="geometry">
            <Array as="points">
              <mxPoint x="90" y="410" />
              <mxPoint x="55" y="410" />
            </Array>
          </mxGeometry>
        </mxCell>
        <mxCell id="_EF181qJnlzV5lathquv-30" style="edgeStyle=orthogonalEdgeStyle;rounded=0;orthogonalLoop=1;jettySize=auto;html=1;entryX=0.5;entryY=0;entryDx=0;entryDy=0;" edge="1" parent="1" source="7LcBtZxE-Kfw0sb23pDX-2" target="7LcBtZxE-Kfw0sb23pDX-6">
          <mxGeometry relative="1" as="geometry" />
        </mxCell>
        <mxCell id="7LcBtZxE-Kfw0sb23pDX-2" value="世界（首页）" style="rounded=0;whiteSpace=wrap;html=1;" parent="1" vertex="1">
          <mxGeometry x="50" y="350" width="80" height="40" as="geometry" />
        </mxCell>
        <mxCell id="_EF181qJnlzV5lathquv-8" style="edgeStyle=orthogonalEdgeStyle;rounded=0;orthogonalLoop=1;jettySize=auto;html=1;entryX=0.25;entryY=0;entryDx=0;entryDy=0;" edge="1" parent="1" source="7LcBtZxE-Kfw0sb23pDX-3" target="7LcBtZxE-Kfw0sb23pDX-18">
          <mxGeometry relative="1" as="geometry" />
        </mxCell>
        <mxCell id="_EF181qJnlzV5lathquv-40" style="edgeStyle=orthogonalEdgeStyle;rounded=0;orthogonalLoop=1;jettySize=auto;html=1;entryX=0.5;entryY=0;entryDx=0;entryDy=0;" edge="1" parent="1" source="7LcBtZxE-Kfw0sb23pDX-3" target="7LcBtZxE-Kfw0sb23pDX-23">
          <mxGeometry relative="1" as="geometry" />
        </mxCell>
        <mxCell id="7LcBtZxE-Kfw0sb23pDX-3" value="动态发表" style="rounded=0;whiteSpace=wrap;html=1;" parent="1" vertex="1">
          <mxGeometry x="310" y="350" width="80" height="40" as="geometry" />
        </mxCell>
        <mxCell id="_EF181qJnlzV5lathquv-41" style="edgeStyle=orthogonalEdgeStyle;rounded=0;orthogonalLoop=1;jettySize=auto;html=1;entryX=0.5;entryY=0;entryDx=0;entryDy=0;" edge="1" parent="1" source="7LcBtZxE-Kfw0sb23pDX-4" target="7LcBtZxE-Kfw0sb23pDX-25">
          <mxGeometry relative="1" as="geometry">
            <Array as="points">
              <mxPoint x="590" y="400" />
              <mxPoint x="469" y="400" />
            </Array>
          </mxGeometry>
        </mxCell>
        <mxCell id="_EF181qJnlzV5lathquv-42" style="edgeStyle=orthogonalEdgeStyle;rounded=0;orthogonalLoop=1;jettySize=auto;html=1;entryX=0.5;entryY=0;entryDx=0;entryDy=0;" edge="1" parent="1" source="7LcBtZxE-Kfw0sb23pDX-4" target="7LcBtZxE-Kfw0sb23pDX-26">
          <mxGeometry relative="1" as="geometry">
            <Array as="points">
              <mxPoint x="590" y="400" />
              <mxPoint x="545" y="400" />
            </Array>
          </mxGeometry>
        </mxCell>
        <mxCell id="_EF181qJnlzV5lathquv-43" style="edgeStyle=orthogonalEdgeStyle;rounded=0;orthogonalLoop=1;jettySize=auto;html=1;entryX=0.5;entryY=0;entryDx=0;entryDy=0;" edge="1" parent="1" source="7LcBtZxE-Kfw0sb23pDX-4" target="7LcBtZxE-Kfw0sb23pDX-29">
          <mxGeometry relative="1" as="geometry">
            <Array as="points">
              <mxPoint x="590" y="400" />
              <mxPoint x="615" y="400" />
            </Array>
          </mxGeometry>
        </mxCell>
        <mxCell id="_EF181qJnlzV5lathquv-44" style="edgeStyle=orthogonalEdgeStyle;rounded=0;orthogonalLoop=1;jettySize=auto;html=1;entryX=0.5;entryY=0;entryDx=0;entryDy=0;" edge="1" parent="1" source="7LcBtZxE-Kfw0sb23pDX-4" target="7LcBtZxE-Kfw0sb23pDX-30">
          <mxGeometry relative="1" as="geometry">
            <Array as="points">
              <mxPoint x="590" y="400" />
              <mxPoint x="695" y="400" />
            </Array>
          </mxGeometry>
        </mxCell>
        <mxCell id="7LcBtZxE-Kfw0sb23pDX-4" value="我的" style="rounded=0;whiteSpace=wrap;html=1;" parent="1" vertex="1">
          <mxGeometry x="550" y="350" width="80" height="40" as="geometry" />
        </mxCell>
        <mxCell id="_EF181qJnlzV5lathquv-35" style="edgeStyle=orthogonalEdgeStyle;rounded=0;orthogonalLoop=1;jettySize=auto;html=1;entryX=0.5;entryY=0;entryDx=0;entryDy=0;" edge="1" parent="1" source="7LcBtZxE-Kfw0sb23pDX-5" target="7LcBtZxE-Kfw0sb23pDX-9">
          <mxGeometry relative="1" as="geometry" />
        </mxCell>
        <mxCell id="7LcBtZxE-Kfw0sb23pDX-5" value="关注" style="rounded=0;whiteSpace=wrap;html=1;" parent="1" vertex="1">
          <mxGeometry x="30" y="430" width="50" height="40" as="geometry" />
        </mxCell>
        <mxCell id="_EF181qJnlzV5lathquv-36" style="edgeStyle=orthogonalEdgeStyle;rounded=0;orthogonalLoop=1;jettySize=auto;html=1;entryX=0.5;entryY=0;entryDx=0;entryDy=0;" edge="1" parent="1" source="7LcBtZxE-Kfw0sb23pDX-6" target="7LcBtZxE-Kfw0sb23pDX-11">
          <mxGeometry relative="1" as="geometry" />
        </mxCell>
        <mxCell id="7LcBtZxE-Kfw0sb23pDX-6" value="广场" style="rounded=0;whiteSpace=wrap;html=1;" parent="1" vertex="1">
          <mxGeometry x="90" y="430" width="50" height="40" as="geometry" />
        </mxCell>
        <mxCell id="7LcBtZxE-Kfw0sb23pDX-9" value="好友动态" style="rounded=0;whiteSpace=wrap;html=1;" parent="1" vertex="1">
          <mxGeometry x="30" y="500" width="50" height="40" as="geometry" />
        </mxCell>
        <mxCell id="_EF181qJnlzV5lathquv-37" style="edgeStyle=orthogonalEdgeStyle;rounded=0;orthogonalLoop=1;jettySize=auto;html=1;entryX=0.5;entryY=0;entryDx=0;entryDy=0;" edge="1" parent="1" source="7LcBtZxE-Kfw0sb23pDX-11" target="7LcBtZxE-Kfw0sb23pDX-14">
          <mxGeometry relative="1" as="geometry" />
        </mxCell>
        <mxCell id="_EF181qJnlzV5lathquv-38" style="edgeStyle=orthogonalEdgeStyle;rounded=0;orthogonalLoop=1;jettySize=auto;html=1;entryX=0.5;entryY=0;entryDx=0;entryDy=0;" edge="1" parent="1" source="7LcBtZxE-Kfw0sb23pDX-11" target="7LcBtZxE-Kfw0sb23pDX-16">
          <mxGeometry relative="1" as="geometry" />
        </mxCell>
        <mxCell id="7LcBtZxE-Kfw0sb23pDX-11" value="社区版块" style="rounded=0;whiteSpace=wrap;html=1;" parent="1" vertex="1">
          <mxGeometry x="90" y="500" width="50" height="40" as="geometry" />
        </mxCell>
        <mxCell id="7LcBtZxE-Kfw0sb23pDX-13" value="用户" style="rounded=0;whiteSpace=wrap;html=1;" parent="1" vertex="1">
          <mxGeometry x="230" y="430" width="50" height="40" as="geometry" />
        </mxCell>
        <mxCell id="7LcBtZxE-Kfw0sb23pDX-14" value="版块动态" style="rounded=0;whiteSpace=wrap;html=1;" parent="1" vertex="1">
          <mxGeometry x="60" y="580" width="50" height="40" as="geometry" />
        </mxCell>
        <mxCell id="7LcBtZxE-Kfw0sb23pDX-15" value="文字&lt;span style=&quot;font-family: monospace ; font-size: 0px&quot;&gt;%3CmxGraphModel%3E%3Croot%3E%3CmxCell%20id%3D%220%22%2F%3E%3CmxCell%20id%3D%221%22%20parent%3D%220%22%2F%3E%3CmxCell%20id%3D%222%22%20value%3D%22%E6%90%9C%E7%B4%A2%22%20style%3D%22rounded%3D0%3BwhiteSpace%3Dwrap%3Bhtml%3D1%3B%22%20vertex%3D%221%22%20parent%3D%221%22%3E%3CmxGeometry%20x%3D%22334%22%20y%3D%22410%22%20width%3D%2280%22%20height%3D%2240%22%20as%3D%22geometry%22%2F%3E%3C%2FmxCell%3E%3C%2Froot%3E%3C%2FmxGraphModel%3E&lt;/span&gt;" style="rounded=0;whiteSpace=wrap;html=1;" parent="1" vertex="1">
          <mxGeometry x="170" y="430" width="50" height="40" as="geometry" />
        </mxCell>
        <mxCell id="7LcBtZxE-Kfw0sb23pDX-16" value="动态" style="rounded=0;whiteSpace=wrap;html=1;" parent="1" vertex="1">
          <mxGeometry x="120" y="580" width="50" height="40" as="geometry" />
        </mxCell>
        <mxCell id="7LcBtZxE-Kfw0sb23pDX-18" value="分享" style="rounded=0;whiteSpace=wrap;html=1;" parent="1" vertex="1">
          <mxGeometry x="300" y="430" width="50" height="40" as="geometry" />
        </mxCell>
        <mxCell id="7LcBtZxE-Kfw0sb23pDX-23" value="秘密" style="rounded=0;whiteSpace=wrap;html=1;" parent="1" vertex="1">
          <mxGeometry x="360" y="430" width="50" height="40" as="geometry" />
        </mxCell>
        <mxCell id="_EF181qJnlzV5lathquv-49" value="" style="edgeStyle=orthogonalEdgeStyle;rounded=0;orthogonalLoop=1;jettySize=auto;html=1;" edge="1" parent="1" source="7LcBtZxE-Kfw0sb23pDX-25" target="_EF181qJnlzV5lathquv-48">
          <mxGeometry relative="1" as="geometry" />
        </mxCell>
        <mxCell id="7LcBtZxE-Kfw0sb23pDX-25" value="设置" style="rounded=0;whiteSpace=wrap;html=1;" parent="1" vertex="1">
          <mxGeometry x="444" y="430" width="50" height="40" as="geometry" />
        </mxCell>
        <mxCell id="_EF181qJnlzV5lathquv-48" value="退出" style="rounded=0;whiteSpace=wrap;html=1;" vertex="1" parent="1">
          <mxGeometry x="444" y="500" width="50" height="40" as="geometry" />
        </mxCell>
        <mxCell id="7LcBtZxE-Kfw0sb23pDX-26" value="关注" style="rounded=0;whiteSpace=wrap;html=1;" parent="1" vertex="1">
          <mxGeometry x="520" y="430" width="50" height="40" as="geometry" />
        </mxCell>
        <mxCell id="7LcBtZxE-Kfw0sb23pDX-29" value="粉丝" style="rounded=0;whiteSpace=wrap;html=1;" parent="1" vertex="1">
          <mxGeometry x="590" y="430" width="50" height="40" as="geometry" />
        </mxCell>
        <mxCell id="_EF181qJnlzV5lathquv-45" style="edgeStyle=orthogonalEdgeStyle;rounded=0;orthogonalLoop=1;jettySize=auto;html=1;entryX=0.5;entryY=0;entryDx=0;entryDy=0;" edge="1" parent="1" source="7LcBtZxE-Kfw0sb23pDX-30" target="iN-X8D-LXdJQQtMRfMe6-1">
          <mxGeometry relative="1" as="geometry" />
        </mxCell>
        <mxCell id="_EF181qJnlzV5lathquv-46" style="edgeStyle=orthogonalEdgeStyle;rounded=0;orthogonalLoop=1;jettySize=auto;html=1;entryX=0.5;entryY=0;entryDx=0;entryDy=0;" edge="1" parent="1" source="7LcBtZxE-Kfw0sb23pDX-30" target="7LcBtZxE-Kfw0sb23pDX-33">
          <mxGeometry relative="1" as="geometry" />
        </mxCell>
        <mxCell id="7LcBtZxE-Kfw0sb23pDX-30" value="我的小屋" style="rounded=0;whiteSpace=wrap;html=1;" parent="1" vertex="1">
          <mxGeometry x="670" y="430" width="50" height="40" as="geometry" />
        </mxCell>
        <mxCell id="7LcBtZxE-Kfw0sb23pDX-33" value="时间轴" style="rounded=0;whiteSpace=wrap;html=1;" parent="1" vertex="1">
          <mxGeometry x="630" y="500" width="50" height="40" as="geometry" />
        </mxCell>
        <mxCell id="iN-X8D-LXdJQQtMRfMe6-1" value="秘密&lt;br&gt;" style="rounded=0;whiteSpace=wrap;html=1;" parent="1" vertex="1">
          <mxGeometry x="710" y="500" width="50" height="40" as="geometry" />
        </mxCell>
        <mxCell id="iN-X8D-LXdJQQtMRfMe6-2" style="edgeStyle=orthogonalEdgeStyle;rounded=0;orthogonalLoop=1;jettySize=auto;html=1;exitX=0.5;exitY=1;exitDx=0;exitDy=0;" parent="1" edge="1">
          <mxGeometry relative="1" as="geometry">
            <mxPoint x="115" y="480" as="sourcePoint" />
            <mxPoint x="115" y="480" as="targetPoint" />
          </mxGeometry>
        </mxCell>
        <mxCell id="iN-X8D-LXdJQQtMRfMe6-22" value="" style="endArrow=none;html=1;" parent="1" edge="1">
          <mxGeometry width="50" height="50" relative="1" as="geometry">
            <mxPoint x="220" y="390" as="sourcePoint" />
            <mxPoint x="220" y="410" as="targetPoint" />
          </mxGeometry>
        </mxCell>
        <mxCell id="iN-X8D-LXdJQQtMRfMe6-25" value="" style="endArrow=none;html=1;" parent="1" edge="1">
          <mxGeometry width="50" height="50" relative="1" as="geometry">
            <mxPoint x="349.6" y="390" as="sourcePoint" />
            <mxPoint x="349.6" y="410" as="targetPoint" />
          </mxGeometry>
        </mxCell>
        <mxCell id="_EF181qJnlzV5lathquv-17" style="edgeStyle=orthogonalEdgeStyle;rounded=0;orthogonalLoop=1;jettySize=auto;html=1;entryX=0;entryY=0.5;entryDx=0;entryDy=0;" edge="1" parent="1" source="_EF181qJnlzV5lathquv-11" target="_EF181qJnlzV5lathquv-12">
          <mxGeometry relative="1" as="geometry" />
        </mxCell>
        <mxCell id="_EF181qJnlzV5lathquv-11" value="开始" style="rounded=0;whiteSpace=wrap;html=1;" vertex="1" parent="1">
          <mxGeometry x="15" y="150" width="80" height="40" as="geometry" />
        </mxCell>
        <mxCell id="_EF181qJnlzV5lathquv-18" style="edgeStyle=orthogonalEdgeStyle;rounded=0;orthogonalLoop=1;jettySize=auto;html=1;entryX=0;entryY=0.5;entryDx=0;entryDy=0;" edge="1" parent="1" source="_EF181qJnlzV5lathquv-12" target="_EF181qJnlzV5lathquv-13">
          <mxGeometry relative="1" as="geometry" />
        </mxCell>
        <mxCell id="_EF181qJnlzV5lathquv-12" value="过度页面" style="rounded=0;whiteSpace=wrap;html=1;" vertex="1" parent="1">
          <mxGeometry x="150" y="150" width="80" height="40" as="geometry" />
        </mxCell>
        <mxCell id="_EF181qJnlzV5lathquv-19" style="edgeStyle=orthogonalEdgeStyle;rounded=0;orthogonalLoop=1;jettySize=auto;html=1;entryX=0.5;entryY=0;entryDx=0;entryDy=0;" edge="1" parent="1" source="_EF181qJnlzV5lathquv-13" target="_EF181qJnlzV5lathquv-16">
          <mxGeometry relative="1" as="geometry">
            <Array as="points">
              <mxPoint x="350" y="230" />
              <mxPoint x="245" y="230" />
            </Array>
          </mxGeometry>
        </mxCell>
        <mxCell id="_EF181qJnlzV5lathquv-20" style="edgeStyle=orthogonalEdgeStyle;rounded=0;orthogonalLoop=1;jettySize=auto;html=1;" edge="1" parent="1" source="_EF181qJnlzV5lathquv-13" target="_EF181qJnlzV5lathquv-15">
          <mxGeometry relative="1" as="geometry">
            <Array as="points">
              <mxPoint x="350" y="230" />
              <mxPoint x="465" y="230" />
            </Array>
          </mxGeometry>
        </mxCell>
        <mxCell id="_EF181qJnlzV5lathquv-23" value="否" style="text;html=1;align=center;verticalAlign=middle;resizable=0;points=[];" vertex="1" connectable="0" parent="_EF181qJnlzV5lathquv-20">
          <mxGeometry x="-0.2516" y="-4" relative="1" as="geometry">
            <mxPoint x="2" y="-14" as="offset" />
          </mxGeometry>
        </mxCell>
        <mxCell id="_EF181qJnlzV5lathquv-13" value="是否登录" style="rhombus;whiteSpace=wrap;html=1;" vertex="1" parent="1">
          <mxGeometry x="310" y="130" width="80" height="80" as="geometry" />
        </mxCell>
        <mxCell id="_EF181qJnlzV5lathquv-51" style="edgeStyle=orthogonalEdgeStyle;rounded=0;orthogonalLoop=1;jettySize=auto;html=1;entryX=0.5;entryY=0;entryDx=0;entryDy=0;" edge="1" parent="1" source="_EF181qJnlzV5lathquv-15" target="7LcBtZxE-Kfw0sb23pDX-4">
          <mxGeometry relative="1" as="geometry">
            <Array as="points">
              <mxPoint x="465" y="300" />
              <mxPoint x="590" y="300" />
            </Array>
          </mxGeometry>
        </mxCell>
        <mxCell id="_EF181qJnlzV5lathquv-15" value="注册" style="rounded=0;whiteSpace=wrap;html=1;" vertex="1" parent="1">
          <mxGeometry x="440" y="250" width="50" height="40" as="geometry" />
        </mxCell>
        <mxCell id="_EF181qJnlzV5lathquv-24" style="edgeStyle=orthogonalEdgeStyle;rounded=0;orthogonalLoop=1;jettySize=auto;html=1;entryX=0.5;entryY=0;entryDx=0;entryDy=0;" edge="1" parent="1" source="_EF181qJnlzV5lathquv-16" target="7LcBtZxE-Kfw0sb23pDX-2">
          <mxGeometry relative="1" as="geometry">
            <mxPoint x="60" y="360" as="targetPoint" />
            <Array as="points">
              <mxPoint x="245" y="300" />
              <mxPoint x="90" y="300" />
            </Array>
          </mxGeometry>
        </mxCell>
        <mxCell id="_EF181qJnlzV5lathquv-25" style="edgeStyle=orthogonalEdgeStyle;rounded=0;orthogonalLoop=1;jettySize=auto;html=1;entryX=0.5;entryY=0;entryDx=0;entryDy=0;" edge="1" parent="1" source="_EF181qJnlzV5lathquv-16" target="7LcBtZxE-Kfw0sb23pDX-1">
          <mxGeometry relative="1" as="geometry">
            <Array as="points">
              <mxPoint x="245" y="300" />
              <mxPoint x="220" y="300" />
            </Array>
          </mxGeometry>
        </mxCell>
        <mxCell id="_EF181qJnlzV5lathquv-26" style="edgeStyle=orthogonalEdgeStyle;rounded=0;orthogonalLoop=1;jettySize=auto;html=1;entryX=0.5;entryY=0;entryDx=0;entryDy=0;" edge="1" parent="1" source="_EF181qJnlzV5lathquv-16" target="7LcBtZxE-Kfw0sb23pDX-3">
          <mxGeometry relative="1" as="geometry">
            <Array as="points">
              <mxPoint x="245" y="300" />
              <mxPoint x="350" y="300" />
            </Array>
          </mxGeometry>
        </mxCell>
        <mxCell id="_EF181qJnlzV5lathquv-27" style="edgeStyle=orthogonalEdgeStyle;rounded=0;orthogonalLoop=1;jettySize=auto;html=1;" edge="1" parent="1" source="_EF181qJnlzV5lathquv-16" target="7LcBtZxE-Kfw0sb23pDX-4">
          <mxGeometry relative="1" as="geometry">
            <Array as="points">
              <mxPoint x="245" y="300" />
              <mxPoint x="590" y="300" />
            </Array>
          </mxGeometry>
        </mxCell>
        <mxCell id="_EF181qJnlzV5lathquv-16" value="登录" style="rounded=0;whiteSpace=wrap;html=1;" vertex="1" parent="1">
          <mxGeometry x="220" y="250" width="50" height="40" as="geometry" />
        </mxCell>
        <mxCell id="_EF181qJnlzV5lathquv-21" value="是" style="text;html=1;align=center;verticalAlign=middle;resizable=0;points=[];autosize=1;" vertex="1" parent="1">
          <mxGeometry x="290" y="210" width="30" height="20" as="geometry" />
        </mxCell>
      </root>
    </mxGraphModel>
  </diagram>
  <diagram id="u4ZTwsBJ5_N5W0R2tz7c" name="Page-2">
    <mxGraphModel dx="880" dy="577" grid="1" gridSize="10" guides="1" tooltips="1" connect="1" arrows="1" fold="1" page="1" pageScale="1" pageWidth="827" pageHeight="1169" math="0" shadow="0">
      <root>
        <mxCell id="Yh_3JUXB1_f6c3sNhh7D-0" />
        <mxCell id="Yh_3JUXB1_f6c3sNhh7D-1" parent="Yh_3JUXB1_f6c3sNhh7D-0" />
      </root>
    </mxGraphModel>
  </diagram>
</mxfile>
